<svg xmlns="http://www.w3.org/2000/svg" viewBox="0 0 1000 700"><path fill="#6d7b83" d="M0 0h10v7H0z"/><path fill="#b0cee5" d="M-16 308L1039 2 0-16z"/><path fill="#b6381f" d="M1039 712l-550 19 241-561z"/><path fill="#2facec" d="M278 199L1017 5l22 219z"/><path fill="#126b70" d="M325 210L-16 712l547 19z"/><path fill="#b2321e" d="M878 255l-496-27-3 170z"/><path fill="#7e4c15" d="M-16 370l238 20-116 207z"/><path fill="#148788" d="M820 218l219-7-133 323z"/><path fill="#146997" d="M195 614l448-113-51-170z"/><path fill="#c61d25" d="M1034 486l-299 36 286 209z"/><path fill="#25a4ea" d="M152 101l449 148-119-130z"/><path fill="#4e9dca" d="M264 205l-61 188-219-44z"/><path fill="#c06313" d="M508 731l-1-209 295 15z"/><path fill="#cedeea" d="M295 235l135 2-165-118z"/><path fill="#c05d1b" d="M647 439l-54-203 144-54z"/><path fill="#e5e8eb" d="M368 187L-11 50l8 208z"/><path fill="#158bdf" d="M523 106L497-16h-95z"/><path fill="#036647" d="M34 518l252 11-145 202z"/><path fill="#9bc4e8" d="M790-16l122 138-116 13z"/><path fill="#b21e1c" d="M380 294l327 109-223-202z"/><path fill="#1b7bae" d="M1039 235l-9 248-156 22z"/><path fill="#0f6a9e" d="M506 351l-4 380-300-30z"/><path fill="#8c4716" d="M885 436l-53-186-121-64z"/><path fill="#ebebeb" d="M-16 7l189 81L469-16z"/><path fill="#02abf8" d="M1039 110L836 251l-167-91z"/><path fill="#0a5a88" d="M240 213l148 51-195 169z"/><path fill="#98480b" d="M187 529l10-142-213 110z"/><path fill="#05a2f3" d="M402 239l209-85-218-21z"/><path fill="#81c0e3" d="M160 343l-176 37 30-130z"/><path fill="#096f56" d="M445 389l-37 164-230-174z"/><path fill="#bed6ee" d="M1016-16l-44 86 67 18z"/><path fill="#8dc1e8" d="M541 138l188 36L571 66z"/><path fill="#ba6923" d="M18 546l38-189-72 36z"/><path fill="#229470" d="M39 731l-55-190 103-26z"/><path fill="#01a7f7" d="M577 238l-180-68 383-5z"/><path fill="#6faddc" d="M392 158l-8-87-183 27z"/><path fill="#c1141b" d="M795 691l-34-431 212 431z"/><path fill="#c96f20" d="M523 724l172 4-54-236z"/><path fill="#1a7cb6" d="M414 388l126 137 2-172z"/><path fill="#085183" d="M545 370h87l5 144z"/><path fill="#ededec" d="M420 7l104 118L206-16z"/><path fill="#10966d" d="M850 363l-11-127 200 67z"/><path fill="#9c0b10" d="M610 260l-124-53 10 159z"/><path fill="#8f0f13" d="M876 371l-111-56 124 207z"/><path fill="#1d76ae" d="M167 249l-13 139 120-84z"/><path fill="#67ade2" d="M822 6L647 91l263-33z"/><path fill="#197fb9" d="M379 730L237 616l147-106z"/><path fill="#bf6215" d="M846 307l-253-76 7 141z"/><path fill="#9a4406" d="M777 492l21 239-133-62z"/><path fill="#e0e4ea" d="M602 96L492-12l203 39z"/><path fill="#006141" d="M86 512l171 191-196 28z"/><path fill="#199571" d="M279 351l12 193-104-18z"/><path fill="#00abf9" d="M849 239l89-191 101 135z"/><path fill="#7ac3e9" d="M51 362l103 21 4-134z"/><path fill="#ca1922" d="M634 522l8-147 182-16z"/><path fill="#893e05" d="M21 536l31-170 109 20z"/><path fill="#089cee" d="M704 158l13-108 130 108z"/><path fill="#0e74b2" d="M875 354l14 151 121-187z"/><path fill="#04865d" d="M1039 329L936 215l54-16z"/><path fill="#83a7c7" d="M164 261l-9 72-171-69z"/><path fill="#8eb9d7" d="M411 237l-113-5 64 21z"/><path fill="#4fa9e7" d="M224 139l40-36 90 68z"/><path fill="#cc3f46" d="M988 721l-60-20 14-200z"/><path fill="#cddbee" d="M851 132l-79-49 139 9z"/><path fill="#05578e" d="M428 462l-53 248 137 21z"/><path fill="#96c0e9" d="M970-16l-8 75-71-39z"/><path fill="#c6262f" d="M387 246l99 123-18-154z"/><path fill="#1077b4" d="M425 380l94 127-95 13z"/><path fill="#b2cee6" d="M189 224l103-16-212-34z"/><path fill="#006545" d="M284 528l139-19-130-160z"/><path fill="#105c8f" d="M271 359l106 17 4-120z"/><path fill="#a94d06" d="M732 345l108-82-130-67z"/><path fill="#9a4504" d="M665 504l117 20-90 103z"/><path fill="#1c8edd" d="M616 9l-11-25 53 30z"/><path fill="#df7479" d="M960 576l-34-21 57-5z"/><path fill="#217db5" d="M244 214l-66 37 58 119z"/><path fill="#239471" d="M3 731l-19-204 93 122z"/><path fill="#863c05" d="M77 518L47 364 25 529z"/><path fill="#79b1de" d="M719 41l-7 64-98 14z"/><path fill="#4f180a" d="M779 623l4 108 16-54z"/><path fill="#b56520" d="M549 564l-14-41 147-19z"/><path fill="#1377b1" d="M255 535l-9 196 145-218z"/><path fill="#0ca0f0" d="M410 220l-53-81-46 3z"/><path fill="#1097e9" d="M233 140l-34-45 68 17z"/><path fill="#cf2e36" d="M960 691l-39 6-12-144z"/><path fill="#007650" d="M1001 328l38-88-45-31z"/><path fill="#88b9db" d="M515 141l-137-32 26-29z"/><path fill="#129268" d="M197 395l1 128 67-152z"/><path fill="#05365c" d="M506 539l-56 5-49-25z"/><path fill="#cb2630" d="M765 330l17 193-107-25z"/><path fill="#649dc2" d="M1010 360l29 3-15 108z"/><path fill="#09452f" d="M425 388l-91-7 91 35z"/><path fill="#a90912" d="M1037 484l-16 193-34-181z"/><path fill="#c11924" d="M378 376l116-17-111-107z"/><path fill="#c3a893" d="M632 692l33 10-65-1z"/><path fill="#ba8082" d="M846 703l40-2-40-12z"/><path fill="#02aefa" d="M1021 81l-74 86 92 74z"/><path fill="#065890" d="M548 519l85-10-87-163z"/><path fill="#1e9f77" d="M980 227l-118 9 118 101z"/><path fill="#1f7259" d="M246 692l8-121-47 76z"/><path fill="#a38788" d="M863 513l8 29 3-31z"/><path fill="#ae0911" d="M866 383l-91-45 38 224z"/><path fill="#d0d8e5" d="M19 72l101-61-136-27z"/><path fill="#bc8c66" d="M834 301l4 21-54-41z"/><path fill="#01a9f7" d="M587 137l-79 75 85 39z"/><path fill="#d8a071" d="M615 565l39-6-16 26z"/><path fill="#92bade" d="M798 9l28 61-107-19z"/><path fill="#084572" d="M541 350l79 24-81-2z"/><path fill="#51a7e6" d="M821 56l95 40-60-67z"/><path fill="#512409" d="M786 565l-20-9 19 74z"/><path fill="#a37273" d="M844 514l-5 45-7-43z"/><path fill="#89bce7" d="M518 64L504-1l-6 37z"/><path fill="#064775" d="M239 306l30-83-12 160z"/><path fill="#ce8589" d="M958 688l-36 13 76 1z"/><path fill="#c57129" d="M-7 538l36-13-2-122z"/><path fill="#d00f1a" d="M791 629l110-5-105 107z"/><path fill="#a77b7c" d="M901 505l7 45 5-42z"/><path fill="#6d93ad" d="M375 312l6 16-44-6z"/><path fill="#ced3d6" d="M255 33l165 20-253 36z"/><path fill="#4c0d10" d="M876 403l15 118-25-48z"/><path fill="#db1924" d="M961 690l37-179 23 186z"/><path fill="#c97831" d="M716 289l-31-88-20 148z"/><path fill="#277bae" d="M157 343l83 13-54 36z"/><path fill="#d8111c" d="M918 576l40 125-35-20z"/><path fill="#e6e9ec" d="M361 47l101-11 16 34z"/><path fill="#dc474e" d="M971 606l24-7 6 78z"/><path fill="#a67148" d="M195 473l-25-30-27 25z"/><path fill="#029bf0" d="M900 81l14-48 125 99z"/><path fill="#c39268" d="M636 694l-6-95-11 51z"/><path fill="#257fb4" d="M261 710l89 13 4-205z"/><path fill="#6fd5ff" d="M132 380l23-41-171-20z"/><path fill="#dedfe2" d="M170 198L48 218l115 50z"/><path fill="#418976" d="M432 473l-46-38 5 37z"/><path fill="#064a79" d="M389 654l33-141-38 6z"/><path fill="#ae8789" d="M938 504l11 10-5 33z"/><path fill="#98b2ac" d="M239 609l10 8-27 1z"/><path fill="#7c6656" d="M527 703l21-12 32 13z"/><path fill="#9dd0ee" d="M45 354l-61 38 9-94z"/><path fill="#eeeeef" d="M308 157l99 73-149-25z"/><path fill="#2aa0e8" d="M526 107l-9-50-10 47z"/><path fill="#63b3ed" d="M1008-16L980-5l-4 84z"/><path fill="#ad6267" d="M721 492v-15l54 4z"/><path fill="#d77479" d="M747 397l-18-15 31-5z"/><path fill="#612a04" d="M671 506l44 26 57-2z"/><path fill="#bf686c" d="M942 668l20-6-13-73z"/><path fill="#a7b3b3" d="M229 642l20-3-30-5z"/><path fill="#c45c62" d="M747 481l-13-62 19-5z"/><path fill="#652b10" d="M587 293l14 37-9 36z"/><path fill="#92bee9" d="M854 68l36-4 14 49z"/><path fill="#a50a11" d="M579 339l-121 35 79-129z"/><path fill="#b24e52" d="M883 607l-15-27 4-39z"/><path fill="#16a779" d="M81 538L35 653l27 66z"/><path fill="#33719c" d="M1028 473l-45-1 40 23z"/><path fill="#d36402" d="M689 729l-33-18 25-115z"/><path fill="#0c85c7" d="M528 524l25-22-71 22z"/><path fill="#f4f3f3" d="M104 85l39 87 99-30z"/><path fill="#a74c04" d="M782 731l-11-191-91 174z"/><path fill="#b34d50" d="M854 698l-16-40 7-43z"/><path fill="#3a8bbb" d="M509 525l27-75-25-90z"/><path fill="#663109" d="M845 319l-6-65-23-11z"/><path fill="#b37374" d="M877 700l14 31-9-68z"/><path fill="#68a6cc" d="M353 591l12-25-32 6z"/><path fill="#ceddee" d="M986 39l19-55 34 30z"/><path fill="#7bb4e3" d="M262 155v-39l56 37z"/><path fill="#95b5d3" d="M296 115l-75-23 150-30z"/><path fill="#00442d" d="M87 516l105 21-101 8z"/><path fill="#65b6eb" d="M240 218l-21 9-35-21z"/><path fill="#d10914" d="M879 594l51 137-39-5z"/><path fill="#ab652e" d="M612 371l21 6-3-22z"/><path fill="#bc8585" d="M919 665l10 27-6 22z"/><path fill="#64b9f1" d="M142 199l-44-15 20-7z"/><path fill="#c40915" d="M956 634l2-19 58-6z"/><path fill="#bdccd7" d="M328 58l172 72-91-73z"/><path fill="#d50714" d="M847 676l-53-87 32-85z"/><path fill="#05578f" d="M506 550l-119 55 119 7z"/><path fill="#b42b34" d="M407 277l19 108-29 5z"/><path fill="#40a1e1" d="M403 114l-35-28-12 44z"/><path fill="#ae5a5f" d="M859 451l-1-31 10 30z"/><path fill="#031e2e" d="M239 370l30-1-55 17z"/><path fill="#b87e7f" d="M906 565l5-22 3 44z"/><path fill="#ae500c" d="M828 315l13 37-101-38z"/><path fill="#bac3cd" d="M69 237l-85 32 174-12z"/><path fill="#718ea4" d="M973 327l9 42 2-36z"/><path fill="#ce656b" d="M471 249l-17 25v-29z"/><path fill="#f8f7f6" d="M12 161l149 52-177-12z"/><path fill="#5b96b8" d="M338 610l15 45-15 53z"/><path fill="#c4565c" d="M464 277l-10 63-6-56z"/><path fill="#b94e52" d="M837 557l14 16-7 45z"/><path fill="#004931" d="M281 362l85 19-59 5z"/><path fill="#8fc3eb" d="M381 117l14 54-32-26z"/><path fill="#6a89a0" d="M951 376l2-34-11-9z"/><path fill="#a69284" d="M634 529l-8-17 2 44z"/><path fill="#cfdded" d="M517 61l74 18-81-77z"/><path fill="#7693aa" d="M911 489l56-8-33-4z"/><path fill="#b44d51" d="M869 632l7-30 9 66z"/><path fill="#87535a" d="M674 487l23 8-43 4z"/><path fill="#6cbea6" d="M948 263l19-19-21 1z"/><path fill="#053960" d="M348 254l-59-5-46-33z"/><path fill="#3eaee5" d="M383 261l-26-10 24-4z"/><path fill="#db0d19" d="M928 711l73 20 38-28z"/><path fill="#f8f6f2" d="M127 59L399 2 99-16z"/><path fill="#c5ced7" d="M251 187l-85-1 150 52z"/><path fill="#cc0813" d="M870 574l7 77-34-76z"/><path fill="#672e06" d="M53 385l79 2-87-26z"/><path fill="#6dbeef" d="M707 162l-80-5 38 14z"/><path fill="#f8f7f4" d="M82 93L12 61l-28 80z"/><path fill="#98bee3" d="M804 1l116 31-35 17z"/><path fill="#a87275" d="M688 344l5 39 4-25z"/><path fill="#cb5f02" d="M599 550l-24 94 28 79z"/><path fill="#d66500" d="M515 539l6 144 27-120z"/><path fill="#a47c80" d="M452 371l7-5-6-19z"/><path fill="#c25b03" d="M627 370l-32-7-1-107z"/><path fill="#0f96e9" d="M262 145L159 99l94 10z"/><path fill="#9c8a7e" d="M599 530l9-6-7 32z"/><path fill="#430b0d" d="M876 406l-8 44-6-56z"/><path fill="#d30c18" d="M948 588l-39-61 11 89z"/><path fill="#7abcee" d="M975 71l64 11-55 6z"/><path fill="#007d55" d="M991 209l-1 116 49-11z"/><path fill="#c55459" d="M947 612l-10 33 25 39z"/><path fill="#c90813" d="M715 378l8 135-26-50z"/><path fill="#a9856b" d="M582 694l-8 26-1-57z"/><path fill="#3c0c0e" d="M592 312v-31l-6 11z"/><path fill="#081c32" d="M636 509l-7-21 6-21z"/><path fill="#778d9e" d="M1010 359l2-34-11 1z"/><path fill="#ae494f" d="M571 322l17-17-23-13z"/><path fill="#9f8a7c" d="M569 523l4 35 6-35z"/><path fill="#004830" d="M95 520L74 716l39-98z"/><path fill="#57b297" d="M40 574l28-3-10 19z"/><path fill="#dc0b16" d="M945 548l71-3-71-25z"/><path fill="#9cc7ea" d="M520 89l123 32-92 26z"/><path fill="#628aa0" d="M927 352l-12-16 9 48z"/><path fill="#439d82" d="M53 657l-25 46 19-108z"/><path fill="#1e6ea1" d="M502 363l-31 34-44-13z"/><path fill="#cd6204" d="M678 529l-49-18 54 117z"/><path fill="#dd9094" d="M967 611l-13-8-23 5z"/><path fill="#d3dbe4" d="M33 131l-49 30 172 23z"/><path fill="#d00813" d="M751 498l37-32-3 63z"/><path fill="#a18386" d="M741 366l4-18-7-7z"/><path fill="#70a8d0" d="M27 287l128 33-99 6z"/><path fill="#e49344" d="M668 652l-36-2 31-28z"/><path fill="#ac4e04" d="M700 525l11 204 52-196z"/><path fill="#c1926d" d="M798 309l-7-10 38 7z"/><path fill="#c40814" d="M849 505l60-3-20 13z"/><path fill="#e10c19" d="M1000 571l-47-8 54-8z"/><path fill="#6c899d" d="M324 526l1 38 9-32z"/><path fill="#38769f" d="M331 318l35 2-19-21z"/><path fill="#1697e7" d="M853 44l31 12-35 11z"/><path fill="#ad6369" d="M692 385l7 11-6 24z"/><path fill="#4db495" d="M255 408l32-6-21 20z"/><path fill="#006a47" d="M419 403l-108-24 73 82z"/><path fill="#d7a377" d="M639 622l2-14-27 6z"/><path fill="#67b6ec" d="M704 169l-6-37-39-1z"/><path fill="#006343" d="M251 611l5-75-63 77z"/><path fill="#833438" d="M942 702l21 9 25-9z"/><path fill="#1c80bb" d="M1022 426l17-41-24-4z"/><path fill="#ca0914" d="M952 602l87-19-88-8z"/><path fill="#984404" d="M57 519l141-116-124-24z"/><path fill="#239fe9" d="M712 59l69 37-2-22z"/><path fill="#a0777a" d="M723 353l-8-6 3 32z"/><path fill="#9a5159" d="M471 331l-35 2-1 14z"/><path fill="#8bb5d1" d="M1016 400l14 7-33 3z"/><path fill="#b38b6c" d="M687 316l18 4-46 13z"/><path fill="#c80813" d="M639 510l32-71-38-72z"/><path fill="#a98469" d="M608 575l-6 26-3-46z"/><path fill="#1c8463" d="M969 208l-135 44 85-3z"/><path fill="#55a189" d="M958 332l-8-71-8 38z"/><path fill="#e09699" d="M967 639l2 10-32-2z"/><path fill="#f2f4f7" d="M251 164l145 51-50-45z"/><path fill="#ae9889" d="M603 672l2 45 6-24z"/><path fill="#87a0b5" d="M992 468l28 6-28 5z"/><path fill="#80060c" d="M955 508l60-13 22 17z"/><path fill="#af7479" d="M717 385l7 5-5 17z"/><path fill="#6d8b7f" d="M18 704l34-5-29-11z"/><path fill="#af7241" d="M546 552l14 42-11 36z"/><path fill="#60a5ce" d="M369 615l-30 10-9-13z"/><path fill="#a95309" d="M593 232l-1 31 31-38z"/><path fill="#c6a2a3" d="M962 697l-5 31 9 3z"/><path fill="#d9e2ef" d="M891 131l6-26-94-14z"/><path fill="#5f060a" d="M481 209l72 28-40-4z"/><path fill="#d79863" d="M707 229l-33 10 10 15z"/><path fill="#eeeff2" d="M217 231l-65-33-60 14z"/><path fill="#007bc2" d="M881 345l20 156 30-43z"/><path fill="#61070a" d="M808 346l66 22-34 1z"/><path fill="#aa7475" d="M670 384l-2-40 8 19z"/><path fill="#d50c17" d="M723 423l23 62-20-7z"/><path fill="#5dade5" d="M580 111l5-21-34-3z"/><path fill="#a78c7a" d="M578 577l-6-19-1 35z"/><path fill="#039c6b" d="M269 371l23 8-7 80z"/><path fill="#bd8b64" d="M14 449l4-40 13-4z"/><path fill="#003b27" d="M255 544l-78-13 38 19z"/><path fill="#81b3d2" d="M1007 440l32-12-34 3z"/><path fill="#66aee8" d="M195 108l-42-13h62z"/><path fill="#027edb" d="M415-3l98-13-36 64z"/><path fill="#067bbf" d="M512 431l34-5v-68z"/><path fill="#703302" d="M519 533h25l-37 11z"/><path fill="#d1111c" d="M882 704l8 27-89-21z"/><path fill="#0372b5" d="M995 489l-27-116-4 116z"/><path fill="#ce0b15" d="M790 377l-49-4 13-42z"/><path fill="#d71621" d="M458 301h27v-86z"/><path fill="#97a6a5" d="M231 612l-9 22 1-19z"/><path fill="#ec7d82" d="M1000 641l-21-2 2 10z"/><path fill="#b4474f" d="M680 404l-7 34-4-60z"/><path fill="#d26501" d="M569 528l2 138-21-65z"/><path fill="#5b90b3" d="M211 358l11-31-7-32z"/><path fill="#9b2a31" d="M439 250l-53 3 88-34z"/><path fill="#0177bd" d="M301 653l15 57 1-114z"/><path fill="#65a7cf" d="M501 402l30-8-11 21z"/><path fill="#c49697" d="M943 539l5 51 5-27z"/><path fill="#978274" d="M555 528l-6 34-3-32z"/><path fill="#d06504" d="M606 688l25 11-23-88z"/><path fill="#35a7ed" d="M951 61l49-77-27 89z"/><path fill="#3d9fd3" d="M365 683l-10-41 14-13z"/><path fill="#d80b17" d="M874 651l-19 47 26-8z"/><path fill="#a97e83" d="M695 501l6-13-5-21z"/><path fill="#618aa3" d="M355 523l-11 44-1-40z"/><path fill="#055790" d="M506 542l-98-10 81 167z"/><path fill="#5a2804" d="M725 199l17 19 39 6z"/><path fill="#076dab" d="M323 642l19-43-14-60z"/><path fill="#e97479" d="M998 668l-16-3 22-7z"/><path fill="#b69996" d="M853 716l-3-32-4 15z"/><path fill="#00885c" d="M129 687l14-39-8-42z"/><path fill="#341909" d="M839 328l7 4-1 23z"/><path fill="#5a849e" d="M301 536l11-8-8 39z"/><path fill="#4fa187" d="M260 438l2 65-10-33z"/><path fill="#aa4d04" d="M754 218l52 77 30-33z"/><path fill="#004730" d="M1024 232l-51-20 15-7z"/><path fill="#68bff3" d="M449 221l-6-10 23-2z"/><path fill="#98480a" d="M165 453l-5 13 31-3z"/><path fill="#064" d="M244 731L93 696l152-37z"/><path fill="#6da4c7" d="M215 263l8 9 11-18z"/><path fill="#0b7ec2" d="M511 484l35 32 2-78z"/><path fill="#192135" d="M634 456l-7-26 7-25z"/><path fill="#592902" d="M636 520l21-2-14 6z"/><path fill="#cdd7e5" d="M153 78L3 64l20-39z"/><path fill="#cca5a9" d="M858 425l6 7 1-7z"/><path fill="#5186a8" d="M491 466l10 33-9 29z"/><path fill="#0198ee" d="M799 147l-137-24 115-32z"/><path fill="#83b5d5" d="M1021 365l-24 9 1-7z"/><path fill="#3b6373" d="M281 694l-18 9 39 1z"/><path fill="#cf6508" d="M724 274l-4-65-29 43z"/><path fill="#ae7345" d="M572 588v75l12-36z"/><path fill="#ae0a13" d="M871 480l-23-67-6 107z"/><path fill="#b09c8f" d="M6 508l12-7-25-1z"/><path fill="#813b05" d="M630 531h33l-33 9z"/><path fill="#df0815" d="M485 314l-4 37-20-35z"/><path fill="#e20916" d="M1020 670l-50 28-10-24z"/><path fill="#b3696f" d="M696 434l-4 19 6 15z"/><path fill="#1f6b9b" d="M173 258l71-17 4-28z"/><path fill="#ba706f" d="M747 490l2 30 7-6z"/><path fill="#c65d03" d="M603 694l-27-7v-92z"/><path fill="#0b9cee" d="M326 168l38-9-55-8z"/><path fill="#9a4605" d="M76 516l83-100-5 99z"/><path fill="#5e080c" d="M591 250l-10 8-34-19z"/><path fill="#41a1e2" d="M726 45l-23 32 14 35z"/><path fill="#3d281e" d="M788 617l-13-24 4 44z"/><path fill="#6d8d9e" d="M292 536l-8-2 1 31z"/><path fill="#0381c9" d="M357 658l-16 28 38 27z"/><path fill="#c00b15" d="M773 420l-27 21 4-18z"/><path fill="#d40814" d="M674 423l9-60 12 96z"/><path fill="#99bfdf" d="M594 105l21 40 100-98z"/><path fill="#c37d7e" d="M917 653l-1-33 6 19z"/><path fill="#01b4fd" d="M1000 194H729l113 46z"/><path fill="#ee9da0" d="M992 549l-4 4 7 5z"/><path fill="#d56500" d="M548 681l-37 39 33-131z"/><path fill="#0a65a0" d="M377 654l-41 4 21 6z"/><path fill="#05436b" d="M883 380l-7-34 9 11z"/><path fill="#062f50" d="M593 364h-34l65 21z"/><path fill="#951017" d="M920 657l32 2 3-10z"/><path fill="#e84f56" d="M774 423l-29 26 27-6z"/><path fill="#8e060e" d="M787 531l48-9-48-4z"/><path fill="#df6e05" d="M644 659l32 29-38 10z"/><path fill="#d7111c" d="M922 663l18 35-15-9z"/><path fill="#d86b07" d="M666 520l-27 89 32-4z"/><path fill="#779f97" d="M425 452l-16 23 13-4z"/><path fill="#ae672c" d="M623 224l52-19-54 41z"/><path fill="#92080f" d="M1007 658l-39-2 25-6z"/><path fill="#c20914" d="M871 526l44 111-10-109z"/><path fill="#562504" d="M154 400l-36-18 76 15z"/><path fill="#32687e" d="M474 499l-35 10 34 2z"/><path fill="#d70814" d="M843 592l35 90-16-157z"/><path fill="#83543a" d="M612 345l36-5v-11z"/><path fill="#c65d01" d="M626 573l-19 69-3-63z"/><path fill="#d10713" d="M382 278l21 67 2-101z"/><path fill="#5486ab" d="M933 404l-5 26-5-51z"/><path fill="#a4ccea" d="M405 230l-5-20-24 40z"/><path fill="#4f2304" d="M813 243l-42-21 17 18z"/><path fill="#02416a" d="M379 531l-27-1 28-7z"/><path fill="#ced8e5" d="M148 262l35-50 33 17z"/><path fill="#04a1f2" d="M394 211l149-78-183 40z"/><path fill="#cc6404" d="M632 618l22 3-6 38z"/><path fill="#037abf" d="M947 359l-15 81-8-83z"/><path fill="#668fae" d="M958 385l-8-15 3 37z"/><path fill="#6c98bf" d="M56 270h82l-42 30z"/><path fill="#188f69" d="M-5 659l54-115-17 152z"/><path fill="#924a54" d="M386 357l36-19v11z"/><path fill="#94acb7" d="M317 710l1-32 4 16z"/><path fill="#4a2104" d="M37 515l11-25-5-28z"/><path fill="#3a8669" d="M258 489l10 17-71 10z"/><path fill="#994c0e" d="M606 664v-10l36 4z"/><path fill="#06568d" d="M351 337l-91 35 24-135z"/><path fill="#b88a67" d="M19 466l-7-23-2 48z"/><path fill="#cf0914" d="M726 444l-5-50 20-6z"/><path fill="#c60c16" d="M921 643l28-26-31-4z"/><path fill="#9c090f" d="M800 638l4 68-14-38z"/><path fill="#5991b5" d="M188 343l-27 21 57-22z"/><path fill="#008a5d" d="M123 623l-6-38-8 70z"/><path fill="#310406" d="M872 484l6 20-7-3z"/><path fill="#ba8e91" d="M747 386l-4 13-3-28z"/><path fill="#055b94" d="M620 385l-2 106-88-130z"/><path fill="#76040b" d="M764 339l19 4-41 5z"/><path fill="#a09084" d="M664 232l-2-18 6-2z"/><path fill="#ba7f4c" d="M552 695l-2-68-9 33z"/><path fill="#aa656c" d="M443 373l-6-28-2 27z"/><path fill="#ab7b55" d="M603 663l-2-59 10 25z"/><path fill="#9bb3cd" d="M116 306l43-2 6-49z"/><path fill="#54a08b" d="M930 234l-11-16 7 49z"/><path fill="#a37875" d="M841 697l-8 8-7-7z"/><path fill="#092a48" d="M356 265h32l-59-16z"/><path fill="#d26501" d="M547 614l-34 52 34 32z"/><path fill="#dc0b17" d="M757 432l19 51-21-14z"/><path fill="#739b92" d="M45 540l-6-11-3 36z"/><path fill="#e8a56c" d="M647 612l18-5-2 11z"/><path fill="#017ac0" d="M928 388l30 63-17 31z"/><path fill="#cb1822" d="M411 348l37-44-39-17z"/><path fill="#4d7b9f" d="M925 454l5-28 8 59z"/><path fill="#641115" d="M904 516l34-4-19-3z"/><path fill="#914c18" d="M660 588l-31 9-12-9z"/><path fill="#009665" d="M911 334l-7-109 21 46z"/><path fill="#98bbb2" d="M51 538l2 13 3-25z"/><path fill="#0171b3" d="M279 645l-34 75 11-183z"/><path fill="#73c4ac" d="M959 275l-24 6 24 1z"/><path fill="#0480c6" d="M990 421l31 41-19 12z"/><path fill="#c96305" d="M605 579l21 61-19 13z"/><path fill="#278e6e" d="M-6 537l38-8-22 145z"/><path fill="#033354" d="M284 541h-21l-5 7z"/><path fill="#059e6d" d="M930 289l-4-57 22 36z"/><path fill="#036eaf" d="M177 316l-12-53-10 106z"/><path fill="#e6a267" d="M666 660l-16 8 19 1z"/><path fill="#b4c2cf" d="M364 65l-105-7-40 36z"/><path fill="#d50714" d="M994 506l-9 53-34-45z"/><path fill="#949893" d="M0 699l7-9-1 17z"/><path fill="#7d9d96" d="M950 223l-10 6 4-14z"/><path fill="#66b7ee" d="M821 134h-17l-20-45z"/><path fill="#14684f" d="M41 537v29l11-32z"/><path fill="#1b72a9" d="M185 387l29-4-23-59z"/><path fill="#da8a8e" d="M971 661l-13 10-2-13z"/><path fill="#d46e13" d="M19 434l11 58 13-114z"/><path fill="#c36c6f" d="M921 607l-10-26 4 42z"/><path fill="#df979a" d="M931 610l34-7-4 9z"/><path fill="#008459" d="M164 664l-6-48-12 85z"/><path fill="#d36300" d="M599 238l6 116 19-84z"/><path fill="#ce6101" d="M28 528l-19 1 24-65z"/><path fill="#65a4c6" d="M511 436l-9 29 10 26z"/><path fill="#d30a16" d="M424 253l13 49 1-67z"/><path fill="#9eacb8" d="M340 303l-3 7 15-4z"/><path fill="#dcdddd" d="M-16 266l136-35-76-30z"/><path fill="#a86d3c" d="M20 404l13-36-49 21z"/><path fill="#d60b16" d="M914 572l4 43 19 1z"/><path fill="#6492b4" d="M989 456l11 19-10-44z"/><path fill="#da0e1a" d="M743 415l33-5 3-53z"/><path fill="#7e95ab" d="M966 473l-4 12-3-25z"/><path fill="#2b5b7c" d="M525 495l-10 9-22-1z"/><path fill="#426d7e" d="M321 703l19 1-20-16z"/><path fill="#00a2f4" d="M463 185l122-36 101 31z"/><path fill="#c76614" d="M686 322l-35-95-41 113z"/><path fill="#d8444b" d="M478 275l-6 39-5-36z"/><path fill="#b79277" d="M668 246l-5 15v-29z"/><path fill="#5f2c02" d="M589 532l9-7-22 3z"/><path fill="#85d8fc" d="M120 376l-63-33-18 16z"/><path fill="#c50a15" d="M695 413l21-50-17-12z"/><path fill="#6488a6" d="M983 421l2-32 6 29z"/><path fill="#44c29d" d="M979 283l3 13-39 9z"/><path fill="#6b9b8f" d="M31 596l6-29 2 17z"/><path fill="#64a892" d="M21 669l7-15-5 30z"/><path fill="#5f2e06" d="M621 521l-3 6-16-1z"/><path fill="#b69599" d="M721 437l-2-7 2-5z"/><path fill="#c9966e" d="M0 490l7-55-23 55z"/><path fill="#ad535a" d="M676 486l-7-23 6-19z"/><path fill="#a97478" d="M721 498l5 15-1-26z"/><path fill="#b89f8d" d="M631 599l-1-22-4 8z"/><path fill="#c10712" d="M691 392l-4-38-15 2z"/><path fill="#b20912" d="M867 453l-102 67 52 4z"/><path fill="#05845b" d="M60 523l-7 50 35-56z"/><path fill="#69b1ea" d="M926 18l9 22-36-3z"/><path fill="#b9ada6" d="M175 466l2 5-17-1z"/><path fill="#869f99" d="M877 256l1-20-4 7z"/><path fill="#d0bcbe" d="M938 503l8 1-3 3z"/><path fill="#5f2805" d="M770 527l10 38 1-34z"/><path fill="#d20915" d="M876 527l2 81 37 41z"/><path fill="#015e40" d="M67 628l-21-4-1 8z"/><path fill="#b8cbe6" d="M93 99L35 43l84 43z"/><path fill="#b5a0a2" d="M875 519l-12 10 13-3z"/><path fill="#b20a13" d="M737 339l-18 14 15 13z"/><path fill="#006f4b" d="M70 595l-20-2-2 16z"/><path fill="#ea131b" d="M918 629l25 12 9-6z"/><path fill="#029aed" d="M405 171l68-26-82-29z"/><path fill="#8d3f02" d="M670 622l-21-1-1 6z"/><path fill="#bb7b80" d="M564 307l26 13-18-3z"/><path fill="#c10813" d="M401 388l-16-88-7 80z"/><path fill="#a30f16" d="M570 302l-2 10 20-2z"/><path fill="#084f7f" d="M424 386l7 26 2-32z"/><path fill="#54819d" d="M301 563l8 19-7 27z"/><path fill="#b6ada7" d="M599 519l1 14 5-12z"/><path fill="#10684c" d="M29 663l16-7 24 7z"/></svg>
