<svg xmlns="http://www.w3.org/2000/svg" width="1100" height="1100"><path fill="#39363a" d="M204 554c.5 8.8-8.8 18.8-13.3 26-10.2 16-16.8 32.6-24.2 50-3.4 8-11.8 16.2-8 26 2.4 5.5 9.5 4.5 13 1 8-8.4 17.4-15 27.5-20.6 4.8-2.6 10.5-5 14.3.7 2.8 5 3 11 4 16 2.2 12 4.6 23 7.6 34 9 35 19 69 30 102 4 14 10 27 14 41 3 11 8 24 14 33 3 5 7 7 12 6 6.3-2 7-10 7.5-15 2-16 6-31 8.6-47 2.6-15 2.7-30 2.7-45h4c2.5 18.7 10.3 35 17.5 52 2.3 6 3 15 8.3 19 8.5 6 16.4 0 23-5 0 11-3 21-5.3 31-4.3 22-9.7 45-9.7 67 0 10-2.3 24.6 3.6 33 9 13.6 23.5 8 36.5 7 7.2 0 14.6-1.5 22-2 26-.3 52.6 2 79 2h14c8.2 1 19.5 3 25.3-5 3-4 2.4-12 2.4-17 0-9-.6-18.4 0-28 0-4 1-8.3.6-13-.4-5.4-3.4-19 1-23.2 3.6-3.5 7 4 8.3 6.5 2.7 6.5 3 27 15 21 5.5-3 5.7-11.4 7.3-17 4.6-15.6 14.2-30.7 16.6-47 8 2.5 8.5 18 11 25 6.5 16 11.4 32.6 16 49 2.4 7 3.7 14.3 6.5 21 2.7 6.8 8.4 20.8 18.3 16.4 3-1.5 4-5.4 5-8.3 2-7.2 5.4-14 8.2-21 4-8.7 6.6-18 9.8-27 4.2-12.5 8.4-25.7 10.2-39 4.5 1.6 5 5.7 6.4 10 4 11.6 5.7 29 22.2 24.8 5.2-1.3 5.2-7.2 6.3-11.6 2.7-10.6 6-21.3 9.7-32 1-2.2 4-14 7.8-12.5 2 .8 2.4 4 3 5.7 1.6 6 3 12 5 18 3.2 11 6 22 9.6 33 3.6 10 7.7 20 10 30 1.6 5 3 19 10.7 18.8 3.3-.3 5.2-3.7 6.5-6.5 3-6.3 4-13.3 6.3-20l6.5-22c3.3-10.4 8.5-21 10.4-32 8 2.5 4.7 13.7 5.5 20 1.4 15 3.4 30.3 3.4 45 0 6.6-1 15.3 6 19 4 2 9 1 13 1.3 6 .6 12.8 2 19 1.7 8 0 16-2 24-2.7 17-2 34 3 51 1.4 8.8-1 16-5 24-7.3 12.8-3.3 28.6 1 36-13.6 5-10-6-13-7.6-21-.7-5.3 2.5-11 3.7-16 2.5-10.2 4.4-20.6 6.5-31 .7-4 1-11.6 4.4-14.2 1.6-1 3 0 4.3 1.7 2.6 3.3 5 7.4 7.2 11 7 10 16 20 25.5 27.5 4 3 10.3 5 14.8 2 6.4-5 2.8-19.6 3-26.5 1-13.7-3-26.7-4.4-40-2-15.4-2.4-30.8-4-46-5.4-44 2.5-90.7 10-134 .6-5.6 2-12 4.6-17 3-6 6-9 6-16 0-8.6-4-16.8-5.6-25-5.3-25-13-49.5-19-74-2-7-5.7-14-6-21-.4-8 7-13.5 11.7-19 10.4-12.3 23-26 30.4-40 2.8-5 6-11.4 4.8-17-1-4-5-6.4-8.4-8.3-6.5-3.6-13.3-6.7-20-10-8.3-4.5-15-10.8-23-16-9-6.5-18.6-12-28-18-6.3-4-17-8.2-20.7-15-4-7.6-3.5-19.6-5-28-3-15-3.8-30-5.8-45-1.8-11.7-5-23.3-5.8-35-1-9.4-1-18.6-1-28 0-4.4 0-9.3-3.7-12.6-4-3.4-10-2.4-14.7-2.4-14.2 0-28 3.3-42 5.5-14.7 2-29.3 2-44 3.6-19 2-37.4 4-56 7.5-13.6 2.2-27.2 5-41 5.5-4.3 0-8.7 1.6-13 0-5.6-1.5-10.4-7-15-10-8.4-6-17.2-12-26-17.6-21.4-14-44.7-23.5-67-35.6-12.4-6.8-26-20-41-17.6-6.7 1-13.4 8-18 12.8-4 4.3-6 10-9 15-8 13.6-14.7 28-22 42-3 6.7-7 12.8-10.6 19-1 2-3 6.4-6 5.5-2.4-.6-4-4-5.3-6.2l-10-17c-9.3-15.3-18-31.2-27-47-5-8.5-10.7-19.2-20-23.5-5.3-2.4-13.6-2.2-17.4 2.8-2 2.4-1.7 5.4-3 8-1.4 3-3.7 5.5-6 8-2 2.7-5 7-9 6.7-3.6-.5-7.6-3.5-11-5-6.7-3.6-13.7-7-21-9.5-15.7-5.6-34.3-7-51-9-41.3-5.2-82.5-1.5-123 8.6-14 3.5-27 9.6-41 13.3-10.7 3-22.7 5-34 5.7-8.3.2-20 1-26.6 6.5-4.5 4-4.4 12 1.7 14.4 4 1.6 9 .4 13 1 6.6.7 13.7 3 20 4.6 23.8 6 46.5 16 67 29.4 7.3 5 15 9 22 14 2.3 1.5 6.5 4.4 5 7.6-1.7 4-9.4 5.7-13 7.3-11 4.7-21.5 10.4-32 16.4-32.6 19-59.7 43.3-86 70.6-16.3 17.3-30 36.8-43.6 56-8 11.5-18 23.8-23 37-3 8.6-2.2 16.4-3.4 25-1.4 11.5-5.2 24.7-1.4 36 8 19.7 29 35 44 52.3 7.7 9 15.8 19.3 25.4 26.2 5.5 4 12 6.4 18 9.7 7 3.8 15.5 9.3 24 9 7.7-.3 11.5-9 17-13.5 11.3-9 25.7-16 39-22z"/><path fill="#dcd9e0" d="M285 805c4.8-17 5.5-33.5 7.2-51 .8-9.2 3.2-18 4.5-27 1-6.3.7-12.7 1.7-19 1.3-8 4.5-16.6 7.8-24 1.2-2.8 2.7-6.7 5.8-7.8 3-1 5.5 1.5 7 3.8 3.3 5.5 4.6 13 6.7 19 5.2 15.8 8.7 32.4 14.4 48 2 4 5 7.2 6 11 2 3.2 2 6.7 3 10 2 5.4 5 10.5 6 16 4.7-.7 5.6-3.5 8.5-6.6 4.8-5 8.5-10.7 12.7-16.4 2.5-3.7 5-7.8 10-8.7 7.5-1.5 13 4.8 19 8.3 9.8 5.7 20 10.6 30 15.6 4.5 2.3 9.8 6 15 6.3 4 .2 8-2 12-2.7 6.3-1.3 14.3-.5 20-3.2 8.6-4 17.6-15 28-8.7 17.7 10 24.8 31 32.6 49 2.6 6 5.5 12 8.8 18 1 2 2.6 5 5 5 4.2 1 7-10 8.3-13 4.5-11.6 9-23 17.4-32 3-3.7 7.8-8.8 13-6 6.7 3 7.3 15.2 9.2 22 2.4 8 6 15 8.4 23 1.8 5 2.3 10.4 3.8 16 1.8 6 4.7 11 7.2 17l7 17c.3 1.4 1 4.4 3.2 5 3 .2 4-3.6 4.7-5 2-6 4.3-11.5 6.2-17 4-11 8-22 11.5-33 2.3-8 3.6-16.7 7.4-24 2-4.8 6.8-15 12-16.5 4-.7 7 3.4 8.6 6.2 2.5 4.3 4.3 10 5.6 15 1.3 4.3 1 8 6 10 6.4-11 10.6-23.5 15-35 2-5 4.5-12 10-13.5 9-2 15 12 18 17.4 4.5 8 5.5 18 8 27 4.3 14.5 9.6 29 13.6 44 5-1 6-4.7 7.4-9 2.2-7 4-13 4.7-20 1-14.4 11-27.6 16-40.6 3-8.6 4.7-20 10-27 4-5 10-5 16-5 13 0 27 5.5 40 8.5 4 1 9.8 3.6 14 2.5 6.8-1.7 13-11 18-16 12.5-12.4 26-25 42-33.2 5-2.7 10.8-6.7 17-6.4 9.3 0 7.5 14 8.3 20.3 2.7 22.5 3.8 44.5 3.8 67 11.6-2 4-20.7 15-23 5-1 9 6.4 11 9.6 6 7.5 11 16.3 16 24.5 3 4.7 5.6 9.7 10 12l1-1c-2-10-4.3-21.3-5-32 0-8.3 2-16.5 2-25 0-14.2-3.2-28.3-3-43 .8-7 2-14 3-21 2-21.4 4-43.2 5.5-65 1-11 2.8-22.5 4.3-34 .5-4.6 2.4-10 2-15 0-3.3-2.5-6-4-9-1.7-3.2-2.3-7-3-11-2.6-14.3-7-28.4-9.6-43-2-10-2-20.4-3-31-.6-8-2.3-16.5-2.5-25 0-6.5 4.8-11 8.8-16 6-7 12-15 17-23 2-3.5 7-10.2 5.7-15-2.4-7.2-16.5-12-22.4-16-15-11.3-30.8-22-46-33.6-8.5-6.2-18.4-13-22.8-23-4.7-11-2.5-25.2-3.3-37-1.4-19.3-5-38.6-7.6-58l-3-23c-.5-2.5-.3-6.3-2.3-8.3-4-4-16.2 0-21.2 1-7 1-14.5 1-21 3-5.7 1.3-10.8 4-16 5-8 1.3-17 1-25 1.2-15 1-29 4.3-44 5.8-13 1.4-25.6 1.5-38 2.4-10 1-19.6 5-29 2.7-7.8-2-14.6-9.2-21-13-16-9-32-16.6-47-26.7-8-5.3-16-11-24-15.4-9.8-5-20-9-29-14.4-5-3-12.7-11-19-9-7 2-12.5 14.4-15.5 20.3-10 19.3-19 39.5-31 58-4 6-10.6 19.2-19 20-9.5.2-19-12.6-24.5-19-11-13.8-22.5-27.7-32.4-42-4.2-6.8-7.3-16.5-13-22-4.5-4-7 .8-9.8 4-2.5 4-6 7-11 7-5.6 0-11-4-16-7-8.2-5-17-9-26-12.3-8.5-3.4-18-7-27-9-5-1-10-.7-15-2-3-1-5.4-4.6-9-4.7-4.2 0-8.3 3-13 3-10.4 0-21-1.3-32-1-21 1-42 5-63 10-6 1-12 2-18 3.2s-11.5 4-18 5c-2.3.7-11.3 1-12 4-.3 2 2.7 3 4 3.7 5 1.5 10 3.5 15 6 11 4.2 24 8.2 34 14.5 8.7 5.2 16 12.3 24 18.4 19.5 14.6 38.6 29 56 46 7 6.5 14 13 21 19 3 3 6 6.7 10 8 4 1 8.5-.5 12-1 9-1.3 17.5-2.6 26-3.6 19.6-2 39.7-1 59-1 7.8 0 15.7-2.4 23-2 5 .7 7 5 11 6.5 3.4 1 7 .5 10 2 6 2.4 11 7 16 10.3 10 6.3 19.8 12 29 19.3 15.6 11.8 26 30 31 48.7 1.5 6 4.5 15 1.3 21-3 6-12 5-18 6-14.7 3-28 9.3-42 15.3-9 4-17 9.4-25 15-5 3.6-9.3 7.8-15 10-6 2.7-12.5 3.4-19 5-19 4.8-40 7.7-60 4-6.7-1-11.6-5-18-7.3-6-2-12.7-3-19-5-13.3-3.5-26.4-8.3-39-14.6-5-2.6-11-5.3-14-10.3-2.6-4.2-.5-9 4.3-10.5 5-1.6 10.6 0 15 2 26.8 9 52 19.3 80 24 11 1.5 22.7 4 33 1.5 10.7-2.5 18-8.4 27-14 9-5.8 19-11 28-16 13.8-8 29-12.5 43-18.5 4-1.3 13-4 11-10-1-4.3-5.3-8-8-11-10.5-12-23.5-20.3-37.6-27.3-9.7-5-19.4-12-30-15-7.5-2.4-15-2.2-23-3-10.6-1-22.2-4-33-3.7-19 .6-39 8.6-57 14.3-14 4-27 11-41 16-5 2-9.6 5-15 5-8 0-16-8-11.7-16 4.7-9 19.8-13.5 28.8-17 4.6-1.6 11-3.7 13-8.7 2-5.3-10.4-10.7-13.8-13-12.3-8.6-24-18.7-35-29-3.6-3.4-9.3-10.3-15-9.7-5 .2-10.3 5-15 8-14 7-27 15.2-40 25-24.7 18-50.2 36-72 58.3-17 17.4-31 37-43 58-7 12.7-14 25.8-20 39-2.5 5.5-7 12.7-6.3 19 1 14.5 11 24 20.4 34 9.8 11.5 21.8 21.5 33 32.3 9 9 17.8 18.3 29 25.2 4 2.3 8 .5 12-1 7.7-3.7 15.3-7.4 23-10.7 11.6-5 23.6-9 35-14.2 3.4-1.4 7.8-2 10.8-4 4-3 6.6-10 9-14 7.7-13 13-27 18.8-41 4-9.5 7.6-19.3 11.6-29 1.7-3.7 5.4-7 8.8-2.7 2 2.8 1.7 6.8 2 10 1.8 12.6-2 25-5 37-3 12.7-7.4 24-12 36-1 3.3-1 7-2.5 10-2.4 4.7-6.4 8.6-9 13-9.6 16.3-19 32.6-28 49-2.7 4.7-6.7 9-8.5 14-1 2.6 0 4.6 2.8 4.8 3.4.2 6.5-1 10 0 10.7 4 12 20.7 15 30.3 12 42 20 84.8 33.2 126l9.8 30c1.5 4.5 2.5 9 7 10zm641-41.8c-3.5 1.3-6 5-9 6.7-10.2 6-19.6 12-29 20-7 5-12.8 11-22 12-4.6 0-8-3-12-4-5.8-2-12-3-18-5-3.3-1-9.5-3-12 .2-1.6 2.5-.4 6-.2 8.6.7 6.5 1 13.3 1.2 20 .6 15-2.6 30-2 45 .4 9.2 4 18.5 4.8 28 .7 7 1 14 1.2 21 0 3 .2 6.2 3 8 4.4 2.3 10.4-1 15-1 11 .4 18.6-3 29-5.4 4.3-1 8.7-.4 13-1.3 5-1 9.6-3 15-3.2 6.2 0 9.4 3.8 15 4.7 4.5.7 14.7-1.7 19-3.5 4-1.5 3.5-5 3.2-9-.6-6.6-1.3-13-2.5-20-2-12.4-5.3-25-6.5-38-.7-6.6 1-13 .8-20-.2-11-2-22.5-2-34 0-8-.8-16.4-1-25 0-2.3-.2-7-4-5.6m-529.7 21c-4.2 2-2 12-2.4 16-2 16.6-2 33.4-4 50l-3 33c-1 7-3 14.3-2 21 .7 4 3.4 7 4.4 11l3 13c.4 2.4 0 5.5 1.6 7.6 1.8 2.3 4.6 2.4 7 2.5 6 .3 13 .5 19 0 7-.7 13.4.4 20 0 13.7-1 27.5-3 41-3h17c2.8 0 6 .5 8.7-1 4.2-3 2-12.4 2.4-17 1-8 2-16 2-24 0-8.2-2-16.6-2.5-25-1.5-18 3-40.4-5-57-2-3.6-4.8-13-9-14-3.6-1-8 2-11 3l-15 4.7c-7.4 2.6-11 5.4-19 2.5-13.5-5-26-12-39-18-3.6-1.6-10.8-7-14.8-5z"/><path fill="#39363a" d="M219 411.5c-23.7 5.2-29.7 46.7-10 59.8 5.5 3.6 14.8 3.6 21 2.2 24.5-5.6 34-47 11-60.3-5.7-3.3-15.6-3-22-1.7z"/></svg>